<svg width="258" height="70" viewBox="0 0 258 70" fill="none" xmlns="http://www.w3.org/2000/svg">
<path d="M94.4648 19.58C94.4648 18.7516 95.1364 18.08 95.9648 18.08H97.7008C98.5293 18.08 99.2008 18.7516 99.2008 19.58V46.404C99.2008 47.2324 99.8724 47.904 100.701 47.904H122.789C123.617 47.904 124.289 48.5756 124.289 49.404V50.5C124.289 51.3284 123.617 52 122.789 52H95.9648C95.1364 52 94.4648 51.3284 94.4648 50.5V19.58Z" fill="white"/>
<path d="M162.728 18.336C163.557 18.336 164.228 19.0076 164.228 19.836V50.5C164.228 51.3284 163.557 52 162.728 52H161.184C160.462 52 159.876 51.4146 159.876 50.6925C159.876 49.3578 157.776 48.6636 156.725 49.486C156.174 49.9171 155.582 50.3071 154.948 50.656C152.858 51.7654 150.468 52.32 147.78 52.32C143.386 52.32 139.908 51.104 137.348 48.672C134.831 46.1974 133.572 42.592 133.572 37.856V19.836C133.572 19.0076 134.244 18.336 135.072 18.336H136.616C137.445 18.336 138.116 19.0076 138.116 19.836V37.408C138.116 40.9494 138.991 43.6374 140.74 45.472C142.49 47.3067 144.986 48.224 148.228 48.224C151.77 48.224 154.564 47.1574 156.612 45.024C158.66 42.848 159.684 39.84 159.684 36V19.836C159.684 19.0076 160.356 18.336 161.184 18.336H162.728Z" fill="white"/>
<path d="M197.307 18.08C201.531 18.08 204.88 19.3174 207.355 21.792C209.872 24.224 211.131 27.7867 211.131 32.48V50.5C211.131 51.3284 210.459 52 209.631 52H208.087C207.258 52 206.587 51.3284 206.587 50.5V32.928C206.587 29.4293 205.712 26.7627 203.963 24.928C202.214 23.0934 199.718 22.176 196.475 22.176C192.848 22.176 189.968 23.264 187.835 25.44C185.744 27.5734 184.699 30.5387 184.699 34.336V50.5C184.699 51.3284 184.027 52 183.199 52H181.655C180.826 52 180.155 51.3284 180.155 50.5V19.836C180.155 19.0076 180.826 18.336 181.655 18.336H183.154C183.901 18.336 184.507 18.9417 184.507 19.6888C184.507 21.0587 186.646 21.7853 187.746 20.9692C188.328 20.5375 188.955 20.1504 189.627 19.808C191.846 18.656 194.406 18.08 197.307 18.08Z" fill="white"/>
<path d="M256.012 18.336C256.841 18.336 257.512 19.0076 257.512 19.836V50.5C257.512 51.3284 256.841 52 256.012 52H254.61C253.809 52 253.16 51.3509 253.16 50.5502C253.16 49.0819 250.899 48.3288 249.739 49.2287C249.111 49.7156 248.438 50.1487 247.72 50.528C245.502 51.7227 242.984 52.32 240.168 52.32C237.011 52.32 234.152 51.5947 231.592 50.144C229.032 48.6934 227.027 46.6667 225.576 44.064C224.126 41.4614 223.4 38.496 223.4 35.168C223.4 31.84 224.126 28.8747 225.576 26.272C227.027 23.6694 229.032 21.664 231.592 20.256C234.152 18.8054 237.011 18.08 240.168 18.08C242.899 18.08 245.352 18.656 247.528 19.808C248.279 20.1834 248.983 20.6198 249.641 21.1174C250.801 21.9943 252.968 21.2491 252.968 19.7951C252.968 18.9893 253.622 18.336 254.427 18.336H256.012ZM240.552 48.288C242.899 48.288 245.011 47.7547 246.888 46.688C248.808 45.5787 250.302 44.0214 251.368 42.016C252.478 40.0107 253.032 37.728 253.032 35.168C253.032 32.608 252.478 30.3254 251.368 28.32C250.302 26.3147 248.808 24.7787 246.888 23.712C245.011 22.6027 242.899 22.048 240.552 22.048C238.163 22.048 236.008 22.6027 234.088 23.712C232.211 24.7787 230.718 26.3147 229.608 28.32C228.542 30.3254 228.008 32.608 228.008 35.168C228.008 37.728 228.542 40.0107 229.608 42.016C230.718 44.0214 232.211 45.5787 234.088 46.688C236.008 47.7547 238.163 48.288 240.552 48.288Z" fill="white"/>
<path d="M19.378 34.9883L14.625 32.3148V36.3441L44 54.2073V49.4219L19.378 34.9883Z" fill="white"/>
<path d="M51 52.8315L47 54.5815V21.9271L51 19.9271V52.8315Z" fill="white"/>
<path d="M23.2697 33.7922L44 23.4271V45.9445L23.2697 33.7922Z" fill="white"/>
<path d="M49.437 17.3545L20.1664 31.9898L16.2915 29.8102L45.4274 14.8485L49.437 17.3545Z" fill="white"/>
<path fill-rule="evenodd" clip-rule="evenodd" d="M25 0C11.1929 0 0 11.1929 0 25V70H45C58.8071 70 70 58.8071 70 45V0H25ZM45.5726 11.4015L11.625 28.8341V38.0309L45.3869 58.5618L54 54.7935V16.6686L45.5726 11.4015Z" fill="white"/>
</svg>
