<svg width="241" height="60" viewBox="0 0 241 60" fill="none" xmlns="http://www.w3.org/2000/svg">
<path d="M77.4648 14.58C77.4648 13.7516 78.1364 13.08 78.9648 13.08L80.7008 13.08C81.5293 13.08 82.2008 13.7516 82.2008 14.58V41.404C82.2008 42.2324 82.8724 42.904 83.7008 42.904H105.789C106.617 42.904 107.289 43.5756 107.289 44.404V45.5C107.289 46.3284 106.617 47 105.789 47H78.9648C78.1364 47 77.4648 46.3284 77.4648 45.5V14.58Z" fill="black"/>
<path d="M145.728 13.336C146.557 13.336 147.228 14.0076 147.228 14.836V45.5C147.228 46.3284 146.557 47 145.728 47H144.184C143.462 47 142.876 46.4146 142.876 45.6925C142.876 44.3578 140.776 43.6636 139.725 44.486C139.174 44.9171 138.582 45.3071 137.948 45.656C135.858 46.7654 133.468 47.32 130.78 47.32C126.386 47.32 122.908 46.104 120.348 43.672C117.831 41.1974 116.572 37.592 116.572 32.856V14.836C116.572 14.0076 117.244 13.336 118.072 13.336H119.616C120.445 13.336 121.116 14.0076 121.116 14.836V32.408C121.116 35.9494 121.991 38.6374 123.74 40.472C125.49 42.3067 127.986 43.224 131.228 43.224C134.77 43.224 137.564 42.1574 139.612 40.024C141.66 37.848 142.684 34.84 142.684 31V14.836C142.684 14.0076 143.356 13.336 144.184 13.336H145.728Z" fill="black"/>
<path d="M180.307 13.08C184.531 13.08 187.88 14.3174 190.355 16.792C192.872 19.224 194.131 22.7867 194.131 27.48V45.5C194.131 46.3284 193.459 47 192.631 47H191.087C190.258 47 189.587 46.3284 189.587 45.5V27.928C189.587 24.4294 188.712 21.7627 186.963 19.928C185.214 18.0934 182.718 17.176 179.475 17.176C175.848 17.176 172.968 18.264 170.835 20.44C168.744 22.5734 167.699 25.5387 167.699 29.336V45.5C167.699 46.3284 167.027 47 166.199 47H164.655C163.826 47 163.155 46.3284 163.155 45.5V14.836C163.155 14.0076 163.826 13.336 164.655 13.336H166.154C166.901 13.336 167.507 13.9417 167.507 14.6888C167.507 16.0587 169.646 16.7853 170.746 15.9692C171.328 15.5375 171.955 15.1504 172.627 14.808C174.846 13.656 177.406 13.08 180.307 13.08Z" fill="black"/>
<path d="M239.012 13.336C239.841 13.336 240.512 14.0076 240.512 14.836V45.5C240.512 46.3284 239.841 47 239.012 47H237.61C236.809 47 236.16 46.3509 236.16 45.5502C236.16 44.0819 233.899 43.3288 232.739 44.2287C232.111 44.7156 231.438 45.1487 230.72 45.528C228.502 46.7227 225.984 47.32 223.168 47.32C220.011 47.32 217.152 46.5947 214.592 45.144C212.032 43.6934 210.027 41.6667 208.576 39.064C207.126 36.4614 206.4 33.496 206.4 30.168C206.4 26.84 207.126 23.8747 208.576 21.272C210.027 18.6694 212.032 16.664 214.592 15.256C217.152 13.8054 220.011 13.08 223.168 13.08C225.899 13.08 228.352 13.656 230.528 14.808C231.279 15.1834 231.983 15.6198 232.641 16.1174C233.801 16.9943 235.968 16.2491 235.968 14.7951C235.968 13.9893 236.622 13.336 237.427 13.336H239.012ZM223.552 43.288C225.899 43.288 228.011 42.7547 229.888 41.688C231.808 40.5787 233.302 39.0214 234.368 37.016C235.478 35.0107 236.032 32.728 236.032 30.168C236.032 27.608 235.478 25.3254 234.368 23.32C233.302 21.3147 231.808 19.7787 229.888 18.712C228.011 17.6027 225.899 17.048 223.552 17.048C221.163 17.048 219.008 17.6027 217.088 18.712C215.211 19.7787 213.718 21.3147 212.608 23.32C211.542 25.3254 211.008 27.608 211.008 30.168C211.008 32.728 211.542 35.0107 212.608 37.016C213.718 39.0214 215.211 40.5787 217.088 41.688C219.008 42.7547 221.163 43.288 223.552 43.288Z" fill="black"/>
<path d="M16.4623 30.5261L14.125 29.2114V30.3338L34.7917 42.9014V41.2709L16.4623 30.5261Z" fill="#5210DC"/>
<path d="M40.125 42.817L38.7917 43.4003V20.3611L40.125 19.6944V42.817Z" fill="#5210DC"/>
<path d="M21.6513 28.9313L34.7917 22.3611V36.6343L21.6513 28.9313Z" fill="#5210DC"/>
<path d="M38.0409 16.2643L36.6949 15.423L16.347 25.8719L17.5135 26.528L38.0409 16.2643Z" fill="#5210DC"/>
<path fill-rule="evenodd" clip-rule="evenodd" d="M25 0C11.1929 0 0 11.1929 0 25V60H35C48.8071 60 60 48.8071 60 35V0H25ZM36.8885 10.827L10.125 24.5704V32.5829L36.6408 48.7074L44.125 45.433V15.3498L36.8885 10.827Z" fill="#5210DC"/>
</svg>
